solid OpenSCAD_Model
  facet normal -1 0 0
    outer loop
      vertex 0 24 0
      vertex 0 22.5 1
      vertex 0 24 1
    endloop
  endfacet
  facet normal -1 0 0
    outer loop
      vertex 0 24 0
      vertex 0 20.5 1
      vertex 0 22.5 1
    endloop
  endfacet
  facet normal -1 0 0
    outer loop
      vertex 0 0 0
      vertex 0 20.5 1
      vertex 0 24 0
    endloop
  endfacet
  facet normal -1 -0 0
    outer loop
      vertex 0 20.5 1
      vertex 0 0 0
      vertex 0 2 1
    endloop
  endfacet
  facet normal -1 -0 0
    outer loop
      vertex 0 2 1
      vertex 0 0 0
      vertex 0 0 1
    endloop
  endfacet
  facet normal -1 0 0
    outer loop
      vertex 0 2 1
      vertex 0 0.9 4.9
      vertex 0 2 4.9
    endloop
  endfacet
  facet normal -1 0 0
    outer loop
      vertex 0 0 7.6
      vertex 0 0.9 4.9
      vertex 0 0 1
    endloop
  endfacet
  facet normal -1 0 0
    outer loop
      vertex 0 0 1
      vertex 0 0.9 4.9
      vertex 0 2 1
    endloop
  endfacet
  facet normal -1 0 0
    outer loop
      vertex 0 0.9 6.7
      vertex 0 2 7.6
      vertex 0 2 6.7
    endloop
  endfacet
  facet normal -1 0 0
    outer loop
      vertex 0 0.9 6.7
      vertex 0 0 7.6
      vertex 0 2 7.6
    endloop
  endfacet
  facet normal -1 0 0
    outer loop
      vertex 0 0.9 4.9
      vertex 0 0 7.6
      vertex 0 0.9 6.7
    endloop
  endfacet
  facet normal -1 0 0
    outer loop
      vertex 0 22.5 1
      vertex 0 21.6 4.9
      vertex 0 22.5 7.6
    endloop
  endfacet
  facet normal -1 0 0
    outer loop
      vertex 0 20.5 1
      vertex 0 21.6 4.9
      vertex 0 22.5 1
    endloop
  endfacet
  facet normal -1 -0 0
    outer loop
      vertex 0 21.6 4.9
      vertex 0 20.5 1
      vertex 0 20.5 4.9
    endloop
  endfacet
  facet normal -1 0 0
    outer loop
      vertex 0 21.6 6.7
      vertex 0 22.5 7.6
      vertex 0 21.6 4.9
    endloop
  endfacet
  facet normal -1 0 0
    outer loop
      vertex 0 20.5 7.6
      vertex 0 21.6 6.7
      vertex 0 20.5 6.7
    endloop
  endfacet
  facet normal -1 0 0
    outer loop
      vertex 0 21.6 6.7
      vertex 0 20.5 7.6
      vertex 0 22.5 7.6
    endloop
  endfacet
  facet normal 0 0 1
    outer loop
      vertex 35.1 22.5 7.6
      vertex 32.2 21.6 7.6
      vertex 35.1 20.5 7.6
    endloop
  endfacet
  facet normal 0 0 1
    outer loop
      vertex 35.1 22.5 7.6
      vertex 3 21.6 7.6
      vertex 32.2 21.6 7.6
    endloop
  endfacet
  facet normal -0 0 1
    outer loop
      vertex 0 22.5 7.6
      vertex 3 21.6 7.6
      vertex 35.1 22.5 7.6
    endloop
  endfacet
  facet normal 0 0 1
    outer loop
      vertex 0 20.5 7.6
      vertex 3 21.6 7.6
      vertex 0 22.5 7.6
    endloop
  endfacet
  facet normal 0 0 1
    outer loop
      vertex 3 21.6 7.6
      vertex 0 20.5 7.6
      vertex 3 20.5 7.6
    endloop
  endfacet
  facet normal 0 0 1
    outer loop
      vertex 35.1 20.5 7.6
      vertex 32.2 21.6 7.6
      vertex 32.2 20.5 7.6
    endloop
  endfacet
  facet normal 1 -0 0
    outer loop
      vertex 35.1 20.5 7.6
      vertex 35.1 22.5 1
      vertex 35.1 22.5 7.6
    endloop
  endfacet
  facet normal 1 0 0
    outer loop
      vertex 35.1 22.5 1
      vertex 35.1 20.5 7.6
      vertex 35.1 20.5 1
    endloop
  endfacet
  facet normal 0 1 -0
    outer loop
      vertex 35.1 22.5 1
      vertex 0 22.5 7.6
      vertex 35.1 22.5 7.6
    endloop
  endfacet
  facet normal 0 1 0
    outer loop
      vertex 0 22.5 7.6
      vertex 35.1 22.5 1
      vertex 0 22.5 1
    endloop
  endfacet
  facet normal 0 0 -1
    outer loop
      vertex 0 0 0
      vertex 36 24 0
      vertex 36 0 0
    endloop
  endfacet
  facet normal -0 0 -1
    outer loop
      vertex 36 24 0
      vertex 0 0 0
      vertex 0 24 0
    endloop
  endfacet
  facet normal 0 -1 0
    outer loop
      vertex 0 20.5 4.9
      vertex 0 20.5 1
      vertex 33.7 20.5 4.9
    endloop
  endfacet
  facet normal 0 -1 0
    outer loop
      vertex 33.7 20.5 6.7
      vertex 32.2 20.5 7.6
      vertex 32.2 20.5 6.7
    endloop
  endfacet
  facet normal 0 -1 0
    outer loop
      vertex 32.2 20.5 7.6
      vertex 33.7 20.5 6.7
      vertex 35.1 20.5 7.6
    endloop
  endfacet
  facet normal 0 -1 0
    outer loop
      vertex 33.7 20.5 4.9
      vertex 35.1 20.5 7.6
      vertex 33.7 20.5 6.7
    endloop
  endfacet
  facet normal 0 -1 0
    outer loop
      vertex 33.7 20.5 4.9
      vertex 35.1 20.5 1
      vertex 35.1 20.5 7.6
    endloop
  endfacet
  facet normal 0 -1 0
    outer loop
      vertex 35.1 20.5 1
      vertex 33.7 20.5 4.9
      vertex 0 20.5 1
    endloop
  endfacet
  facet normal 0 -1 0
    outer loop
      vertex 0 20.5 6.7
      vertex 3 20.5 7.6
      vertex 0 20.5 7.6
    endloop
  endfacet
  facet normal 0 -1 -0
    outer loop
      vertex 3 20.5 7.6
      vertex 0 20.5 6.7
      vertex 3 20.5 6.7
    endloop
  endfacet
  facet normal 0 0 1
    outer loop
      vertex 3 2 7.6
      vertex 0 2 7.6
      vertex 3 0.9 7.6
    endloop
  endfacet
  facet normal 0 0 1
    outer loop
      vertex 32.2 0.9 7.6
      vertex 35.1 2 7.6
      vertex 32.2 2 7.6
    endloop
  endfacet
  facet normal 0 0 1
    outer loop
      vertex 35.1 2 7.6
      vertex 32.2 0.9 7.6
      vertex 35.1 0 7.6
    endloop
  endfacet
  facet normal -0 0 1
    outer loop
      vertex 3 0.9 7.6
      vertex 35.1 0 7.6
      vertex 32.2 0.9 7.6
    endloop
  endfacet
  facet normal 0 0 1
    outer loop
      vertex 3 0.9 7.6
      vertex 0 0 7.6
      vertex 35.1 0 7.6
    endloop
  endfacet
  facet normal 0 0 1
    outer loop
      vertex 0 0 7.6
      vertex 3 0.9 7.6
      vertex 0 2 7.6
    endloop
  endfacet
  facet normal 1 -0 0
    outer loop
      vertex 35.1 0 7.6
      vertex 35.1 2 1
      vertex 35.1 2 7.6
    endloop
  endfacet
  facet normal 1 0 0
    outer loop
      vertex 35.1 2 1
      vertex 35.1 0 7.6
      vertex 35.1 0 1
    endloop
  endfacet
  facet normal 0 1 0
    outer loop
      vertex 35.1 2 7.6
      vertex 33.7 2 6.7
      vertex 32.2 2 7.6
    endloop
  endfacet
  facet normal 0 1 0
    outer loop
      vertex 35.1 2 7.6
      vertex 33.7 2 4.9
      vertex 33.7 2 6.7
    endloop
  endfacet
  facet normal 0 1 -0
    outer loop
      vertex 35.1 2 1
      vertex 33.7 2 4.9
      vertex 35.1 2 7.6
    endloop
  endfacet
  facet normal 0 1 0
    outer loop
      vertex 0 2 1
      vertex 33.7 2 4.9
      vertex 35.1 2 1
    endloop
  endfacet
  facet normal 0 1 0
    outer loop
      vertex 33.7 2 4.9
      vertex 0 2 1
      vertex 0 2 4.9
    endloop
  endfacet
  facet normal 0 1 0
    outer loop
      vertex 32.2 2 7.6
      vertex 33.7 2 6.7
      vertex 32.2 2 6.7
    endloop
  endfacet
  facet normal 0 1 -0
    outer loop
      vertex 3 2 6.7
      vertex 0 2 7.6
      vertex 3 2 7.6
    endloop
  endfacet
  facet normal 0 1 0
    outer loop
      vertex 0 2 7.6
      vertex 3 2 6.7
      vertex 0 2 6.7
    endloop
  endfacet
  facet normal 0 -1 0
    outer loop
      vertex 0 0 1
      vertex 35.1 0 7.6
      vertex 0 0 7.6
    endloop
  endfacet
  facet normal 0 -1 0
    outer loop
      vertex 0 0 1
      vertex 35.1 0 1
      vertex 35.1 0 7.6
    endloop
  endfacet
  facet normal 0 -1 0
    outer loop
      vertex 0 0 0
      vertex 35.1 0 1
      vertex 0 0 1
    endloop
  endfacet
  facet normal 0 -1 0
    outer loop
      vertex 36 0 0
      vertex 35.1 0 1
      vertex 0 0 0
    endloop
  endfacet
  facet normal 0 -1 0
    outer loop
      vertex 35.1 0 1
      vertex 36 0 0
      vertex 36 0 1
    endloop
  endfacet
  facet normal 0 0 -1
    outer loop
      vertex 32.2 0.9 6.7
      vertex 33.7 2 6.7
      vertex 33.7 0.9 6.7
    endloop
  endfacet
  facet normal -0 0 -1
    outer loop
      vertex 33.7 2 6.7
      vertex 32.2 0.9 6.7
      vertex 32.2 2 6.7
    endloop
  endfacet
  facet normal 0 0 -1
    outer loop
      vertex 32.2 20.5 6.7
      vertex 33.7 21.6 6.7
      vertex 33.7 20.5 6.7
    endloop
  endfacet
  facet normal -0 0 -1
    outer loop
      vertex 33.7 21.6 6.7
      vertex 32.2 20.5 6.7
      vertex 32.2 21.6 6.7
    endloop
  endfacet
  facet normal 0 0 -1
    outer loop
      vertex 0 0.9 6.7
      vertex 3 2 6.7
      vertex 3 0.9 6.7
    endloop
  endfacet
  facet normal -0 0 -1
    outer loop
      vertex 3 2 6.7
      vertex 0 0.9 6.7
      vertex 0 2 6.7
    endloop
  endfacet
  facet normal 0 0 -1
    outer loop
      vertex 0 20.5 6.7
      vertex 3 21.6 6.7
      vertex 3 20.5 6.7
    endloop
  endfacet
  facet normal -0 0 -1
    outer loop
      vertex 3 21.6 6.7
      vertex 0 20.5 6.7
      vertex 0 21.6 6.7
    endloop
  endfacet
  facet normal -1 0 0
    outer loop
      vertex 33.7 0.9 4.9
      vertex 33.7 2 6.7
      vertex 33.7 2 4.9
    endloop
  endfacet
  facet normal -1 -0 0
    outer loop
      vertex 33.7 2 6.7
      vertex 33.7 0.9 4.9
      vertex 33.7 0.9 6.7
    endloop
  endfacet
  facet normal -1 0 0
    outer loop
      vertex 33.7 20.5 4.9
      vertex 33.7 21.6 6.7
      vertex 33.7 21.6 4.9
    endloop
  endfacet
  facet normal -1 -0 0
    outer loop
      vertex 33.7 21.6 6.7
      vertex 33.7 20.5 4.9
      vertex 33.7 20.5 6.7
    endloop
  endfacet
  facet normal 0 -1 0
    outer loop
      vertex 0 21.6 4.9
      vertex 3 21.6 6.7
      vertex 0 21.6 6.7
    endloop
  endfacet
  facet normal 0 -1 0
    outer loop
      vertex 33.7 21.6 4.9
      vertex 3 21.6 6.7
      vertex 0 21.6 4.9
    endloop
  endfacet
  facet normal 0 -1 0
    outer loop
      vertex 3 21.6 6.7
      vertex 33.7 21.6 4.9
      vertex 32.2 21.6 6.7
    endloop
  endfacet
  facet normal 0 -1 0
    outer loop
      vertex 32.2 21.6 6.7
      vertex 33.7 21.6 4.9
      vertex 33.7 21.6 6.7
    endloop
  endfacet
  facet normal 0 -1 0
    outer loop
      vertex 3 21.6 6.7
      vertex 32.2 21.6 7.6
      vertex 3 21.6 7.6
    endloop
  endfacet
  facet normal 0 -1 -0
    outer loop
      vertex 32.2 21.6 7.6
      vertex 3 21.6 6.7
      vertex 32.2 21.6 6.7
    endloop
  endfacet
  facet normal -0 0 1
    outer loop
      vertex 0 21.6 4.9
      vertex 33.7 20.5 4.9
      vertex 33.7 21.6 4.9
    endloop
  endfacet
  facet normal 0 0 1
    outer loop
      vertex 33.7 20.5 4.9
      vertex 0 21.6 4.9
      vertex 0 20.5 4.9
    endloop
  endfacet
  facet normal -0 0 1
    outer loop
      vertex 0 2 4.9
      vertex 33.7 0.9 4.9
      vertex 33.7 2 4.9
    endloop
  endfacet
  facet normal 0 0 1
    outer loop
      vertex 33.7 0.9 4.9
      vertex 0 2 4.9
      vertex 0 0.9 4.9
    endloop
  endfacet
  facet normal 0 1 -0
    outer loop
      vertex 33.7 0.9 4.9
      vertex 32.2 0.9 6.7
      vertex 33.7 0.9 6.7
    endloop
  endfacet
  facet normal 0 1 0
    outer loop
      vertex 32.2 0.9 6.7
      vertex 33.7 0.9 4.9
      vertex 3 0.9 6.7
    endloop
  endfacet
  facet normal 0 1 0
    outer loop
      vertex 0 0.9 4.9
      vertex 3 0.9 6.7
      vertex 33.7 0.9 4.9
    endloop
  endfacet
  facet normal 0 1 0
    outer loop
      vertex 3 0.9 6.7
      vertex 0 0.9 4.9
      vertex 0 0.9 6.7
    endloop
  endfacet
  facet normal 0 1 -0
    outer loop
      vertex 32.2 0.9 6.7
      vertex 3 0.9 7.6
      vertex 32.2 0.9 7.6
    endloop
  endfacet
  facet normal 0 1 0
    outer loop
      vertex 3 0.9 7.6
      vertex 32.2 0.9 6.7
      vertex 3 0.9 6.7
    endloop
  endfacet
  facet normal 1 -0 0
    outer loop
      vertex 3 0.9 7.6
      vertex 3 2 6.7
      vertex 3 2 7.6
    endloop
  endfacet
  facet normal 1 0 0
    outer loop
      vertex 3 2 6.7
      vertex 3 0.9 7.6
      vertex 3 0.9 6.7
    endloop
  endfacet
  facet normal 1 -0 0
    outer loop
      vertex 3 20.5 7.6
      vertex 3 21.6 6.7
      vertex 3 21.6 7.6
    endloop
  endfacet
  facet normal 1 0 0
    outer loop
      vertex 3 21.6 6.7
      vertex 3 20.5 7.6
      vertex 3 20.5 6.7
    endloop
  endfacet
  facet normal -1 0 0
    outer loop
      vertex 32.2 0.9 6.7
      vertex 32.2 2 7.6
      vertex 32.2 2 6.7
    endloop
  endfacet
  facet normal -1 -0 0
    outer loop
      vertex 32.2 2 7.6
      vertex 32.2 0.9 6.7
      vertex 32.2 0.9 7.6
    endloop
  endfacet
  facet normal -1 0 0
    outer loop
      vertex 32.2 20.5 6.7
      vertex 32.2 21.6 7.6
      vertex 32.2 21.6 6.7
    endloop
  endfacet
  facet normal -1 -0 0
    outer loop
      vertex 32.2 21.6 7.6
      vertex 32.2 20.5 6.7
      vertex 32.2 20.5 7.6
    endloop
  endfacet
  facet normal -0 0 1
    outer loop
      vertex 0 20.5 1
      vertex 35.1 2 1
      vertex 35.1 20.5 1
    endloop
  endfacet
  facet normal 0 0 1
    outer loop
      vertex 35.1 2 1
      vertex 0 20.5 1
      vertex 0 2 1
    endloop
  endfacet
  facet normal 0 0 1
    outer loop
      vertex 35.1 20.5 1
      vertex 36 24 1
      vertex 35.1 22.5 1
    endloop
  endfacet
  facet normal -0 0 1
    outer loop
      vertex 0 24 1
      vertex 35.1 22.5 1
      vertex 36 24 1
    endloop
  endfacet
  facet normal 0 0 1
    outer loop
      vertex 35.1 22.5 1
      vertex 0 24 1
      vertex 0 22.5 1
    endloop
  endfacet
  facet normal 0 0 1
    outer loop
      vertex 36 24 1
      vertex 35.1 20.5 1
      vertex 36 0 1
    endloop
  endfacet
  facet normal -0 0 1
    outer loop
      vertex 35.1 2 1
      vertex 36 0 1
      vertex 35.1 20.5 1
    endloop
  endfacet
  facet normal 0 0 1
    outer loop
      vertex 36 0 1
      vertex 35.1 2 1
      vertex 35.1 0 1
    endloop
  endfacet
  facet normal 1 -0 0
    outer loop
      vertex 36 0 1
      vertex 36 24 0
      vertex 36 24 1
    endloop
  endfacet
  facet normal 1 0 0
    outer loop
      vertex 36 24 0
      vertex 36 0 1
      vertex 36 0 0
    endloop
  endfacet
  facet normal 0 1 -0
    outer loop
      vertex 36 24 0
      vertex 0 24 1
      vertex 36 24 1
    endloop
  endfacet
  facet normal 0 1 0
    outer loop
      vertex 0 24 1
      vertex 36 24 0
      vertex 0 24 0
    endloop
  endfacet
endsolid OpenSCAD_Model
