solid OpenSCAD_Model
  facet normal 0 -1 0
    outer loop
      vertex 0 -8 0
      vertex 75 -8 45
      vertex 0 -8 45
    endloop
  endfacet
  facet normal 0 -1 -0
    outer loop
      vertex 75 -8 45
      vertex 0 -8 0
      vertex 75 -8 0
    endloop
  endfacet
  facet normal 1 -0 0
    outer loop
      vertex 75 -8 45
      vertex 75 103 0
      vertex 75 103 45
    endloop
  endfacet
  facet normal 1 0 0
    outer loop
      vertex 75 103 0
      vertex 75 -8 45
      vertex 75 -8 0
    endloop
  endfacet
  facet normal 0 1 -0
    outer loop
      vertex 75 120 0
      vertex 67 120 45
      vertex 75 120 45
    endloop
  endfacet
  facet normal 0 1 0
    outer loop
      vertex 67 120 45
      vertex 75 120 0
      vertex 67 120 0
    endloop
  endfacet
  facet normal -1 0 0
    outer loop
      vertex 67 0 0
      vertex 67 120 45
      vertex 67 120 0
    endloop
  endfacet
  facet normal -1 -0 0
    outer loop
      vertex 67 120 45
      vertex 67 0 0
      vertex 67 0 45
    endloop
  endfacet
  facet normal 0 0 -1
    outer loop
      vertex 67 0 0
      vertex 75 103 0
      vertex 75 -8 0
    endloop
  endfacet
  facet normal 0 0 -1
    outer loop
      vertex 67 120 0
      vertex 75 103 0
      vertex 67 0 0
    endloop
  endfacet
  facet normal 0 0 -1
    outer loop
      vertex 75 -8 0
      vertex 8 0 0
      vertex 67 0 0
    endloop
  endfacet
  facet normal 0 0 -1
    outer loop
      vertex 0 -8 0
      vertex 8 0 0
      vertex 75 -8 0
    endloop
  endfacet
  facet normal 0 0 -1
    outer loop
      vertex 0 60 0
      vertex 8 0 0
      vertex 0 -8 0
    endloop
  endfacet
  facet normal 0 0 -1
    outer loop
      vertex 8 0 0
      vertex 0 60 0
      vertex 8 60 0
    endloop
  endfacet
  facet normal 0 0 -1
    outer loop
      vertex 79.853 106.836 0
      vertex 156.915 62.6424 0
      vertex 152.327 56.0891 0
    endloop
  endfacet
  facet normal 0 0 -1
    outer loop
      vertex 79.5241 105.871 0
      vertex 79.853 106.836 0
      vertex 79.7553 106.455 0
    endloop
  endfacet
  facet normal 0 0 -1
    outer loop
      vertex 79.2216 105.321 0
      vertex 79.853 106.836 0
      vertex 79.5241 105.871 0
    endloop
  endfacet
  facet normal 0 0 -1
    outer loop
      vertex 78.8526 104.813 0
      vertex 79.853 106.836 0
      vertex 79.2216 105.321 0
    endloop
  endfacet
  facet normal 0 0 -1
    outer loop
      vertex 78.4227 104.355 0
      vertex 79.853 106.836 0
      vertex 78.8526 104.813 0
    endloop
  endfacet
  facet normal 0 0 -1
    outer loop
      vertex 77.9389 103.955 0
      vertex 79.853 106.836 0
      vertex 78.4227 104.355 0
    endloop
  endfacet
  facet normal 0 0 -1
    outer loop
      vertex 77.4088 103.618 0
      vertex 79.853 106.836 0
      vertex 77.9389 103.955 0
    endloop
  endfacet
  facet normal 0 0 -1
    outer loop
      vertex 76.8406 103.351 0
      vertex 79.853 106.836 0
      vertex 77.4088 103.618 0
    endloop
  endfacet
  facet normal 0 0 -1
    outer loop
      vertex 76.2434 103.157 0
      vertex 79.853 106.836 0
      vertex 76.8406 103.351 0
    endloop
  endfacet
  facet normal 0 0 -1
    outer loop
      vertex 75.6267 103.039 0
      vertex 79.853 106.836 0
      vertex 76.2434 103.157 0
    endloop
  endfacet
  facet normal 0 0 -1
    outer loop
      vertex 75 103 0
      vertex 79.853 106.836 0
      vertex 75.6267 103.039 0
    endloop
  endfacet
  facet normal 0 0 -1
    outer loop
      vertex 79.853 106.836 0
      vertex 75 120 0
      vertex 156.915 62.6424 0
    endloop
  endfacet
  facet normal 0 0 -1
    outer loop
      vertex 75 120 0
      vertex 79.853 106.836 0
      vertex 75 103 0
    endloop
  endfacet
  facet normal 0 0 -1
    outer loop
      vertex 75 103 0
      vertex 67 120 0
      vertex 75 120 0
    endloop
  endfacet
  facet normal 0 0 1
    outer loop
      vertex 8 60 45
      vertex 0 60 45
      vertex 8 0 45
    endloop
  endfacet
  facet normal 0 0 1
    outer loop
      vertex 156.915 62.6424 45
      vertex 79.853 106.836 45
      vertex 152.327 56.0891 45
    endloop
  endfacet
  facet normal 0 0 1
    outer loop
      vertex 79.853 106.836 45
      vertex 79.5241 105.871 45
      vertex 79.7553 106.455 45
    endloop
  endfacet
  facet normal 0 0 1
    outer loop
      vertex 79.853 106.836 45
      vertex 79.2216 105.321 45
      vertex 79.5241 105.871 45
    endloop
  endfacet
  facet normal 0 0 1
    outer loop
      vertex 79.853 106.836 45
      vertex 78.8526 104.813 45
      vertex 79.2216 105.321 45
    endloop
  endfacet
  facet normal 0 0 1
    outer loop
      vertex 79.853 106.836 45
      vertex 78.4227 104.355 45
      vertex 78.8526 104.813 45
    endloop
  endfacet
  facet normal 0 0 1
    outer loop
      vertex 79.853 106.836 45
      vertex 77.9389 103.955 45
      vertex 78.4227 104.355 45
    endloop
  endfacet
  facet normal 0 0 1
    outer loop
      vertex 79.853 106.836 45
      vertex 77.4088 103.618 45
      vertex 77.9389 103.955 45
    endloop
  endfacet
  facet normal 0 0 1
    outer loop
      vertex 79.853 106.836 45
      vertex 76.8406 103.351 45
      vertex 77.4088 103.618 45
    endloop
  endfacet
  facet normal 0 0 1
    outer loop
      vertex 79.853 106.836 45
      vertex 76.2434 103.157 45
      vertex 76.8406 103.351 45
    endloop
  endfacet
  facet normal 0 0 1
    outer loop
      vertex 79.853 106.836 45
      vertex 75.6267 103.039 45
      vertex 76.2434 103.157 45
    endloop
  endfacet
  facet normal 0 0 1
    outer loop
      vertex 75 120 45
      vertex 79.853 106.836 45
      vertex 156.915 62.6424 45
    endloop
  endfacet
  facet normal 0 0 1
    outer loop
      vertex 75 103 45
      vertex 79.853 106.836 45
      vertex 75 120 45
    endloop
  endfacet
  facet normal 0 0 1
    outer loop
      vertex 79.853 106.836 45
      vertex 75 103 45
      vertex 75.6267 103.039 45
    endloop
  endfacet
  facet normal -0 0 1
    outer loop
      vertex 67 120 45
      vertex 75 103 45
      vertex 75 120 45
    endloop
  endfacet
  facet normal 0 0 1
    outer loop
      vertex 75 103 45
      vertex 67 120 45
      vertex 67 0 45
    endloop
  endfacet
  facet normal 0 0 1
    outer loop
      vertex 75 103 45
      vertex 67 0 45
      vertex 75 -8 45
    endloop
  endfacet
  facet normal -0 0 1
    outer loop
      vertex 8 0 45
      vertex 75 -8 45
      vertex 67 0 45
    endloop
  endfacet
  facet normal 0 0 1
    outer loop
      vertex 8 0 45
      vertex 0 -8 45
      vertex 75 -8 45
    endloop
  endfacet
  facet normal 0 0 1
    outer loop
      vertex 0 -8 45
      vertex 8 0 45
      vertex 0 60 45
    endloop
  endfacet
  facet normal -0.573577 -0.819152 0
    outer loop
      vertex 79.853 106.836 0
      vertex 152.327 56.0891 45
      vertex 79.853 106.836 45
    endloop
  endfacet
  facet normal -0.573577 -0.819152 -0
    outer loop
      vertex 152.327 56.0891 45
      vertex 79.853 106.836 0
      vertex 152.327 56.0891 0
    endloop
  endfacet
  facet normal 0.573577 0.819152 -0
    outer loop
      vertex 156.915 62.6424 0
      vertex 75 120 45
      vertex 156.915 62.6424 45
    endloop
  endfacet
  facet normal 0.573577 0.819152 0
    outer loop
      vertex 75 120 45
      vertex 156.915 62.6424 0
      vertex 75 120 0
    endloop
  endfacet
  facet normal 0.819191 -0.57352 0
    outer loop
      vertex 152.327 56.0891 45
      vertex 156.915 62.6424 0
      vertex 156.915 62.6424 45
    endloop
  endfacet
  facet normal 0.819191 -0.57352 0
    outer loop
      vertex 156.915 62.6424 0
      vertex 152.327 56.0891 45
      vertex 152.327 56.0891 0
    endloop
  endfacet
  facet normal 0.0621106 -0.998069 0
    outer loop
      vertex 75 103 0
      vertex 75.6267 103.039 45
      vertex 75 103 45
    endloop
  endfacet
  facet normal 0.0621106 -0.998069 0
    outer loop
      vertex 75.6267 103.039 45
      vertex 75 103 0
      vertex 75.6267 103.039 0
    endloop
  endfacet
  facet normal 0.187932 -0.982182 0
    outer loop
      vertex 75.6267 103.039 0
      vertex 76.2434 103.157 45
      vertex 75.6267 103.039 45
    endloop
  endfacet
  facet normal 0.187932 -0.982182 0
    outer loop
      vertex 76.2434 103.157 45
      vertex 75.6267 103.039 0
      vertex 76.2434 103.157 0
    endloop
  endfacet
  facet normal 0.308956 -0.951076 0
    outer loop
      vertex 76.2434 103.157 0
      vertex 76.8406 103.351 45
      vertex 76.2434 103.157 45
    endloop
  endfacet
  facet normal 0.308956 -0.951076 0
    outer loop
      vertex 76.8406 103.351 45
      vertex 76.2434 103.157 0
      vertex 76.8406 103.351 0
    endloop
  endfacet
  facet normal 0.929788 -0.368094 0
    outer loop
      vertex 79.5241 105.871 45
      vertex 79.7553 106.455 0
      vertex 79.7553 106.455 45
    endloop
  endfacet
  facet normal 0.929788 -0.368094 0
    outer loop
      vertex 79.7553 106.455 0
      vertex 79.5241 105.871 45
      vertex 79.5241 105.871 0
    endloop
  endfacet
  facet normal 0.425291 -0.905057 0
    outer loop
      vertex 76.8406 103.351 0
      vertex 77.4088 103.618 45
      vertex 76.8406 103.351 45
    endloop
  endfacet
  facet normal 0.425291 -0.905057 0
    outer loop
      vertex 77.4088 103.618 45
      vertex 76.8406 103.351 0
      vertex 77.4088 103.618 0
    endloop
  endfacet
  facet normal 0.72912 -0.684386 0
    outer loop
      vertex 78.4227 104.355 45
      vertex 78.8526 104.813 0
      vertex 78.8526 104.813 45
    endloop
  endfacet
  facet normal 0.72912 -0.684386 0
    outer loop
      vertex 78.8526 104.813 0
      vertex 78.4227 104.355 45
      vertex 78.4227 104.355 0
    endloop
  endfacet
  facet normal 0.80908 -0.587698 0
    outer loop
      vertex 78.8526 104.813 45
      vertex 79.2216 105.321 0
      vertex 79.2216 105.321 45
    endloop
  endfacet
  facet normal 0.80908 -0.587698 0
    outer loop
      vertex 79.2216 105.321 0
      vertex 78.8526 104.813 45
      vertex 78.8526 104.813 0
    endloop
  endfacet
  facet normal 0.968659 -0.248394 0
    outer loop
      vertex 79.7553 106.455 45
      vertex 79.853 106.836 0
      vertex 79.853 106.836 45
    endloop
  endfacet
  facet normal 0.968659 -0.248394 0
    outer loop
      vertex 79.853 106.836 0
      vertex 79.7553 106.455 45
      vertex 79.7553 106.455 0
    endloop
  endfacet
  facet normal 0.637202 -0.770696 0
    outer loop
      vertex 77.9389 103.955 0
      vertex 78.4227 104.355 45
      vertex 77.9389 103.955 45
    endloop
  endfacet
  facet normal 0.637202 -0.770696 0
    outer loop
      vertex 78.4227 104.355 45
      vertex 77.9389 103.955 0
      vertex 78.4227 104.355 0
    endloop
  endfacet
  facet normal 0.536494 -0.843904 0
    outer loop
      vertex 77.4088 103.618 0
      vertex 77.9389 103.955 45
      vertex 77.4088 103.618 45
    endloop
  endfacet
  facet normal 0.536494 -0.843904 0
    outer loop
      vertex 77.9389 103.955 45
      vertex 77.4088 103.618 0
      vertex 77.9389 103.955 0
    endloop
  endfacet
  facet normal 0.876216 -0.481919 0
    outer loop
      vertex 79.2216 105.321 45
      vertex 79.5241 105.871 0
      vertex 79.5241 105.871 45
    endloop
  endfacet
  facet normal 0.876216 -0.481919 0
    outer loop
      vertex 79.5241 105.871 0
      vertex 79.2216 105.321 45
      vertex 79.2216 105.321 0
    endloop
  endfacet
  facet normal -1 0 0
    outer loop
      vertex 0 -8 0
      vertex 0 60 45
      vertex 0 60 0
    endloop
  endfacet
  facet normal -1 -0 0
    outer loop
      vertex 0 60 45
      vertex 0 -8 0
      vertex 0 -8 45
    endloop
  endfacet
  facet normal 0 1 -0
    outer loop
      vertex 67 0 0
      vertex 8 0 45
      vertex 67 0 45
    endloop
  endfacet
  facet normal 0 1 0
    outer loop
      vertex 8 0 45
      vertex 67 0 0
      vertex 8 0 0
    endloop
  endfacet
  facet normal 1 -0 0
    outer loop
      vertex 8 0 45
      vertex 8 60 0
      vertex 8 60 45
    endloop
  endfacet
  facet normal 1 0 0
    outer loop
      vertex 8 60 0
      vertex 8 0 45
      vertex 8 0 0
    endloop
  endfacet
  facet normal 0 1 -0
    outer loop
      vertex 8 60 0
      vertex 0 60 45
      vertex 8 60 45
    endloop
  endfacet
  facet normal 0 1 0
    outer loop
      vertex 0 60 45
      vertex 8 60 0
      vertex 0 60 0
    endloop
  endfacet
endsolid OpenSCAD_Model
